<svg xmlns="http://www.w3.org/2000/svg" xmlns:xlink="http://www.w3.org/1999/xlink" xmlns:a="http://ns.adobe.com/AdobeSVGViewerExtensions/3.0/" version="1.1" x="0px" y="0px" viewBox="-23 -11 100 125" enable-background="new -23 -11 100 100" xml:space="preserve"><polygon points="34.407,7.348 34.407,0 19.585,0 19.585,7.348 34.407,7.348 "/><polygon points="34.47,79.699 34.47,72.35 19.648,72.35 19.648,79.699 34.47,79.699 "/><path d="M27.719,5.967h-0.031c-5.37-0.157-9.86,0.502-13.535,1.978c-0.031,0-0.031,0-0.031,0.031  c-3.925,1.445-6.909,3.8-8.981,7.034c-0.031,0-0.031,0-0.031,0.031c-2.198,3.172-3.329,6.657-3.423,10.457  c-0.094,3.988,0.69,7.411,2.292,10.237C4.01,35.798,4.01,35.83,4.01,35.861c0,0,0,0,0.031,0.031  c1.727,2.857,4.114,5.119,7.128,6.752h0.031c0.974,0.564,2.104,1.098,3.423,1.633c1.727-1.1,3.548-1.947,5.495-2.545  c2.324-0.689,3.392,0.283,3.234,2.891c0.848-0.283,1.759-0.473,2.701-0.566c0.753-0.094,1.57-0.094,2.418-0.031  c1.036,0.031,2.009,0.158,2.92,0.377c0.031-2.48,1.193-3.234,3.423-2.293c2.544,1.037,4.805,2.607,6.814,4.648  c0.941,0.91,0.282,2.387-1.979,4.428c0.377,1.004,0.534,2.072,0.439,3.234c-0.094,1.664-0.628,3.203-1.664,4.584  c-0.534,0.66-1.162,1.32-1.947,1.916c-0.282,0.283-0.597,0.533-0.91,0.785c-2.073,1.477-5.056,2.104-8.95,1.947h-0.032  c-3.674-0.252-6.563-1.318-8.667-3.234l0,0c-0.785-0.723-1.413-1.539-1.947-2.387c-0.502-0.848-0.848-1.822-1.005-2.951  c-0.188-1.1-0.094-2.355,0.283-3.707c-0.031-0.094-0.094-0.156-0.125-0.25c-0.283-0.314-0.565-0.598-0.785-0.879  c-0.031,0-0.031,0-0.063-0.033c-0.596-0.689-1.067-1.287-1.381-1.82c-1.351-0.785-3.234-1.068-5.59-0.848  c-5.15,0.439-7.568,1.979-7.285,4.646v0.031c0,0.064,0,0.127,0,0.221c0.785,7.129,3.329,12.561,7.693,16.297  c4.333,3.801,10.488,5.684,18.433,5.684c5.401,0,9.923-0.783,13.565-2.322c3.862-1.602,6.814-4.02,8.824-7.285l-0.031,0.063  c1.79-2.732,2.826-5.621,3.14-8.668c0.063-0.658,0.095-1.318,0.095-1.979v-0.031c-0.031-4.051-0.88-7.441-2.575-10.236  c-0.031-0.031-0.031-0.031-0.031-0.063c-1.1-1.727-2.418-3.203-3.957-4.459c-1.005-0.785-2.104-1.507-3.297-2.135H41.85  c-0.848-0.471-1.821-0.911-2.921-1.319c-2.229-1.036-4.898-2.01-8.039-2.889h-0.031c-4.867-1.287-8.007-2.229-9.42-2.763v-0.031  c-1.664-0.628-2.826-1.319-3.485-2.042c-0.534-0.722-0.785-1.57-0.754-2.543c0.063-1.633,0.848-3.046,2.387-4.271h-0.031  c1.727-1.319,4.302-1.947,7.662-1.853c3.171,0.094,5.715,0.911,7.599,2.48v0.031c1.759,1.602,2.795,3.517,3.108,5.81  c0.283,3.831,2.952,5.589,8.008,5.307c5.118-0.314,7.567-1.79,7.38-4.459c0-0.063,0-0.125,0-0.188  c-0.597-7.223-3.015-12.718-7.254-16.518C41.786,8.165,35.663,6.124,27.719,5.967L27.719,5.967z"/><path fill="none" stroke="#000000" stroke-width="0.628" stroke-linecap="round" stroke-linejoin="round" stroke-miterlimit="10" d="  M21.375,43.932c-0.032-0.094-0.032-0.189-0.032-0.283 M21.25,45.816c0-0.127,0-0.252,0.031-0.377c0-0.031,0-0.031,0-0.031  c0.031-0.473,0.063-0.943,0.094-1.477 M23.354,44.623c-0.031,0-0.094,0-0.125,0.031c-0.659,0.219-1.162,0.471-1.57,0.785  c-0.157,0.125-0.283,0.25-0.408,0.377 M33.371,44.119c-0.031,0.346-0.031,0.66-0.063,0.943c-0.031,0.723-0.063,1.381-0.094,2.01  c-0.031,1.758,0.063,3.172,0.314,4.238c0.502,2.355,1.664,3.016,3.485,1.979c0.157-0.125,0.346-0.25,0.533-0.377  c0.095-0.063,0.188-0.125,0.283-0.219c0.722-0.535,1.318-1.037,1.821-1.508c2.261-2.041,2.92-3.518,1.979-4.428  c-2.01-2.041-4.271-3.611-6.814-4.648c-2.229-0.941-3.392-0.188-3.423,2.293c-0.911-0.219-1.884-0.346-2.921-0.377  c-0.847-0.063-1.664-0.063-2.417,0.031c-0.942,0.096-1.853,0.283-2.701,0.566 M23.354,44.623c0.157-2.607-0.911-3.58-3.234-2.889  c-1.947,0.596-3.768,1.443-5.495,2.543 M21.375,43.932c-0.032,0.314-0.063,0.629-0.094,0.91c-0.031,0.189-0.031,0.377-0.031,0.566  c-0.032,0.627-0.095,1.225-0.126,1.789c0.032-0.156,0.063-0.283,0.063-0.439c0.031-0.314,0.031-0.629,0.063-0.941"/><path d="M30.702,49.176c-0.283,0-0.503,0.094-0.691,0.283c-0.22,0.219-0.313,0.439-0.313,0.721c0,0.283,0.094,0.504,0.313,0.691  c0.188,0.158,0.408,0.252,0.691,0.252c0.282,0,0.502-0.094,0.69-0.252c0.188-0.188,0.282-0.408,0.282-0.691  c0-0.281-0.094-0.502-0.282-0.721C31.204,49.27,30.984,49.176,30.702,49.176L30.702,49.176z"/><path d="M30.262,55.393c-0.125-0.094-0.251-0.156-0.408-0.156c-0.188,0-0.345,0.063-0.439,0.156c-0.157,0.127-0.22,0.283-0.22,0.439  c0,0.189,0.063,0.346,0.22,0.441c0.095,0.156,0.251,0.219,0.439,0.219c0.157,0,0.283-0.063,0.408-0.219  c0.157-0.096,0.22-0.252,0.22-0.441C30.481,55.676,30.419,55.52,30.262,55.393L30.262,55.393z"/><path d="M23.762,51.563c0.283,0,0.502-0.094,0.723-0.252c0.188-0.188,0.282-0.408,0.282-0.689c0-0.283-0.094-0.504-0.282-0.691  c-0.22-0.221-0.44-0.314-0.723-0.314c-0.251,0-0.471,0.094-0.69,0.314c-0.188,0.188-0.283,0.408-0.283,0.691  c0,0.281,0.094,0.502,0.283,0.689C23.291,51.469,23.511,51.563,23.762,51.563L23.762,51.563z"/><path d="M25.175,55.488c-0.125,0.125-0.188,0.281-0.188,0.439c0,0.188,0.063,0.346,0.188,0.439c0.094,0.156,0.251,0.219,0.44,0.219  c0.157,0,0.314-0.063,0.408-0.219c0.157-0.094,0.22-0.252,0.22-0.439c0-0.158-0.063-0.314-0.22-0.439  c-0.094-0.127-0.251-0.189-0.408-0.189C25.426,55.299,25.269,55.361,25.175,55.488L25.175,55.488z"/><path fill="none" stroke="#000000" stroke-width="0.628" stroke-linecap="round" stroke-linejoin="round" stroke-miterlimit="10" d="  M29.854,55.236c-0.188,0-0.345,0.063-0.439,0.156c-0.157,0.127-0.22,0.283-0.22,0.439c0,0.189,0.063,0.346,0.22,0.441  c0.095,0.156,0.251,0.219,0.439,0.219c0.157,0,0.283-0.063,0.408-0.219c0.157-0.096,0.22-0.252,0.22-0.441  c0-0.156-0.063-0.313-0.22-0.439C30.137,55.299,30.011,55.236,29.854,55.236L29.854,55.236z M24.484,51.311  c0.188-0.188,0.282-0.408,0.282-0.689c0-0.283-0.094-0.504-0.282-0.691c-0.22-0.221-0.44-0.314-0.723-0.314  c-0.251,0-0.471,0.094-0.69,0.314c-0.188,0.188-0.283,0.408-0.283,0.691c0,0.281,0.094,0.502,0.283,0.689  c0.22,0.158,0.439,0.252,0.69,0.252C24.044,51.563,24.264,51.469,24.484,51.311L24.484,51.311z M24.987,55.928  c0,0.188,0.063,0.346,0.188,0.439c0.094,0.156,0.251,0.219,0.44,0.219c0.157,0,0.314-0.063,0.408-0.219  c0.157-0.094,0.22-0.252,0.22-0.439c0-0.158-0.063-0.314-0.22-0.439c-0.094-0.127-0.251-0.189-0.408-0.189  c-0.188,0-0.346,0.063-0.44,0.189C25.049,55.613,24.987,55.77,24.987,55.928L24.987,55.928z M30.011,49.459  c-0.22,0.219-0.313,0.439-0.313,0.721c0,0.283,0.094,0.504,0.313,0.691c0.188,0.158,0.408,0.252,0.691,0.252  c0.282,0,0.502-0.094,0.69-0.252c0.188-0.188,0.282-0.408,0.282-0.691c0-0.281-0.094-0.502-0.282-0.721  c-0.188-0.189-0.408-0.283-0.69-0.283C30.419,49.176,30.199,49.27,30.011,49.459L30.011,49.459z M32.743,56.336  c0-0.848-0.503-1.602-1.477-2.23c-0.973-0.596-2.166-0.91-3.579-0.91c-1.382,0-2.575,0.314-3.58,0.91  c-0.974,0.629-1.476,1.383-1.476,2.23s0.502,1.602,1.476,2.197c1.005,0.629,2.198,0.941,3.58,0.941c1.413,0,2.606-0.313,3.579-0.941  C32.24,57.938,32.743,57.184,32.743,56.336L32.743,56.336z"/></svg>
